<?xml version="1.0" encoding="utf-8"?>
<!-- Generator: Adobe Illustrator 21.1.0, SVG Export Plug-In . SVG Version: 6.00 Build 0)  -->
<svg version="1.1" id="Слой_1" xmlns="http://www.w3.org/2000/svg" xmlns:xlink="http://www.w3.org/1999/xlink" x="0px" y="0px"
	 viewBox="0 0 71 100" style="enable-background:new 0 0 71 100;" xml:space="preserve">
<path d="M7.3,98.8c1.5-5,3.8-12.1,7-22.3c13.5-2.2,19.1,1.7,27.7-13.9c-7,2.2-15.4-4-14.9-6.7c0.5-2.7,19.6,1.9,32.1-16.2
	c-15.8,3.5-20.8-4.3-18.8-5.4c4.7-2.7,18.6-1.1,26.1-8.5c3.8-3.8,5.6-13,4.1-16.3c-1.9-4-13.3-9.9-19.6-9.4
	c-6.3,0.6-16.2,24.4-19.1,24.3c-2.9-0.2-3.5-10.7,1.6-20.5c-5.4,2.4-15.3,10-18.3,16.5c-5.8,12,0.5,39.6-1.5,40.6
	c-2,1-8.8-12.7-10.9-18.8C0,51.5-0.1,61,8,73.6c-3.1,8.3-4.7,17.8-5,22.7C2.9,100.2,6.6,101,7.3,98.8z"/>
</svg>
