<svg 
 xmlns="http://www.w3.org/2000/svg"
 xmlns:xlink="http://www.w3.org/1999/xlink"
 width="40px" height="40px">
<path fill-rule="evenodd"  fill="rgb(255, 255, 255)"
 d="M20.000,39.199 C9.396,39.199 0.800,30.604 0.800,20.000 C0.800,9.396 9.396,0.799 20.000,0.799 C30.604,0.799 39.200,9.396 39.200,20.000 C39.200,30.604 30.604,39.199 20.000,39.199 ZM20.000,3.199 C10.736,3.199 3.200,10.736 3.200,20.000 C3.200,29.263 10.736,36.837 20.000,36.837 C29.264,36.837 36.800,29.263 36.800,20.000 C36.800,10.736 29.264,3.199 20.000,3.199 ZM25.167,26.874 L19.227,20.934 C19.209,20.915 19.202,20.891 19.185,20.871 C18.951,20.652 18.800,20.346 18.800,20.000 L18.800,8.000 C18.800,7.337 19.337,6.800 20.000,6.800 C20.663,6.800 21.200,7.337 21.200,8.000 L21.200,19.512 L26.864,25.177 C27.333,25.645 27.333,26.405 26.864,26.874 C26.395,27.342 25.635,27.342 25.167,26.874 Z"/>
</svg>