<?xml version="1.0" encoding="utf-8"?>
<!-- Generator: Adobe Illustrator 21.1.0, SVG Export Plug-In . SVG Version: 6.00 Build 0)  -->
<svg version="1.1" id="Слой_1" xmlns="http://www.w3.org/2000/svg" xmlns:xlink="http://www.w3.org/1999/xlink" x="0px" y="0px"
	 viewBox="0 0 86 90" style="enable-background:new 0 0 86 90;" xml:space="preserve">
<path d="M79.1,30.1C71.2,11.7,58.5-2.3,52,0.3C41.1,4.8,58.5,26.1,4.8,48c-4.6,1.9-5.8,9.4-3.9,14c1.9,4.5,8.3,9,12.9,7.1
	c0.8-0.3,3.8-1.3,3.8-1.3c3.3,4.5,6.8,1.8,8,4.6c1.5,3.4,4.7,10.8,5.8,13.3c1.1,2.5,3.6,4.8,5.4,4.2c1.8-0.7,7.9-3,10.3-3.9
	c2.3-0.9,2.9-3,2.2-4.6c-0.8-1.8-3.9-2.3-4.8-4.4c-0.9-2.1-3.8-8.7-4.7-10.8c-1.2-2.8,1.3-5.2,4.8-5.5c24.5-2.5,29,12.6,37.4,9.2
	C88.3,67.2,87,48.6,79.1,30.1z M76.4,60c-1.4,0.6-11.1-7-17.2-21.3c-6.2-14.3-5.4-27.4-3.9-28c1.4-0.6,10.8,8.6,17,22.9
	C78.3,47.9,77.8,59.4,76.4,60z"/>
</svg>
