<svg 
 xmlns="http://www.w3.org/2000/svg"
 xmlns:xlink="http://www.w3.org/1999/xlink"
 width="41px" height="38px">
<path fill-rule="evenodd"  fill="rgb(255, 255, 255)"
 d="M38.261,11.193 C36.822,12.971 34.610,13.887 31.693,13.931 C30.080,18.732 26.022,22.282 21.141,22.801 L21.141,31.623 L25.024,31.623 C25.718,31.623 26.280,32.190 26.280,32.890 C26.280,33.590 25.718,34.156 25.024,34.156 L14.869,34.156 C14.175,34.156 13.613,33.590 13.613,32.890 C13.613,32.190 14.175,31.623 14.869,31.623 L18.629,31.623 L18.629,22.800 C13.755,22.270 9.706,18.720 8.097,13.923 C5.277,13.842 3.129,12.931 1.722,11.193 C-0.724,8.169 0.119,3.731 0.156,3.547 C0.275,2.959 0.790,2.536 1.386,2.536 L7.344,2.536 L7.344,1.271 C7.344,0.571 7.906,0.005 8.600,0.005 L31.193,0.005 C31.887,0.005 32.449,0.571 32.449,1.271 L32.449,2.536 L38.597,2.536 C39.193,2.536 39.708,2.959 39.827,3.547 C39.864,3.731 40.707,8.169 38.261,11.193 ZM2.510,5.069 C2.454,6.221 2.565,8.236 3.678,9.601 C4.494,10.604 5.792,11.167 7.494,11.332 C7.404,10.682 7.344,10.022 7.344,9.345 L7.344,5.069 L2.510,5.069 ZM29.936,2.538 L9.857,2.538 L9.857,9.345 C9.857,15.405 14.361,20.336 19.898,20.336 C25.433,20.336 29.936,15.405 29.936,9.345 L29.936,2.538 ZM37.473,5.069 L32.449,5.069 L32.449,9.345 C32.449,10.027 32.388,10.692 32.298,11.346 C34.095,11.208 35.460,10.641 36.305,9.601 C37.418,8.236 37.530,6.222 37.473,5.069 ZM11.115,35.462 L28.777,35.462 C29.471,35.462 30.033,36.028 30.033,36.728 C30.033,37.428 29.471,37.995 28.777,37.995 L11.115,37.995 C10.421,37.995 9.859,37.428 9.859,36.728 C9.859,36.028 10.421,35.462 11.115,35.462 Z"/>
</svg>