<?xml version="1.0" encoding="utf-8"?>
<!-- Generator: Adobe Illustrator 21.1.0, SVG Export Plug-In . SVG Version: 6.00 Build 0)  -->
<svg version="1.1" id="Слой_1" xmlns="http://www.w3.org/2000/svg" xmlns:xlink="http://www.w3.org/1999/xlink" x="0px" y="0px"
	 viewBox="0 0 78 78" style="enable-background:new 0 0 78 78;" xml:space="preserve">
<g>
	<path d="M71.8,6.2C64.6-1,59.2,0.1,59.2,0.1L33.9,25.3L5,54.2L0,78l23.8-5.1l28.9-28.9l25.3-25.3C77.9,18.8,79,13.4,71.8,6.2z
		 M22.4,70.1l-8.1,1.7c-0.8-1.5-1.7-2.9-3.5-4.7c-1.7-1.7-3.2-2.7-4.7-3.5l1.8-8.1l2.3-2.3c0,0,4.4,0.1,9.4,5.1c5,5,5.1,9.4,5.1,9.4
		L22.4,70.1z"/>
</g>
</svg>
