<?xml version="1.0" encoding="utf-8"?>
<!-- Generator: Adobe Illustrator 21.1.0, SVG Export Plug-In . SVG Version: 6.00 Build 0)  -->
<svg version="1.1" id="Слой_1" xmlns="http://www.w3.org/2000/svg" xmlns:xlink="http://www.w3.org/1999/xlink" x="0px" y="0px"
	 viewBox="0 0 100 56" style="enable-background:new 0 0 100 56;" xml:space="preserve">
<g>
	<path d="M50,0C17.2,0,0,24.2,0,28c0,3.8,17.2,28,50,28c32.8,0,50-24.2,50-28C100,24.2,82.8,0,50,0z M50,49.5
		c-12.3,0-22.2-9.6-22.2-21.5S37.7,6.5,50,6.5S72.2,16.1,72.2,28S62.3,49.5,50,49.5z M50,28c-2-2.2,3.3-10.8,0-10.8
		c-6.1,0-11.1,4.8-11.1,10.8c0,5.9,5,10.8,11.1,10.8c6.1,0,11.1-4.8,11.1-10.8C61.1,25.3,51.7,29.9,50,28z"/>
</g>
</svg>
