<svg 
 xmlns="http://www.w3.org/2000/svg"
 xmlns:xlink="http://www.w3.org/1999/xlink"
 width="38px" height="38px">
<path fill-rule="evenodd"  fill="rgb(255, 255, 255)"
 d="M35.995,32.055 L32.054,32.055 C31.774,31.009 31.555,30.228 30.831,29.683 L35.625,29.683 L35.625,27.573 C35.467,27.464 35.251,27.340 35.076,27.266 C35.007,27.236 34.923,27.196 34.857,27.161 L27.270,23.024 C26.569,22.641 26.108,21.933 26.040,21.139 C25.974,20.344 26.312,19.569 26.939,19.075 C28.988,17.465 29.677,13.916 29.677,12.058 L29.677,7.048 C29.677,5.304 26.528,2.372 23.098,2.372 C21.381,2.372 19.798,2.952 18.546,3.925 C17.615,3.628 16.538,3.627 15.560,3.567 C17.274,1.564 20.219,-0.000 23.098,-0.000 C27.529,-0.000 32.052,3.732 32.052,7.048 L32.052,12.058 C32.052,14.464 31.186,18.756 28.407,20.940 L35.995,25.078 C35.995,25.078 38.000,25.902 38.000,27.082 L38.000,30.051 C38.000,31.157 37.101,32.055 35.995,32.055 ZM23.741,12.956 L23.741,17.965 C23.741,20.371 22.986,24.664 20.207,26.848 L27.684,30.985 C27.684,30.985 29.689,31.810 29.689,32.989 L29.689,35.996 C29.689,37.102 28.790,38.000 27.684,38.000 L2.004,38.000 C0.899,38.000 -0.000,37.102 -0.000,35.996 L-0.000,32.989 C-0.000,31.877 2.004,30.985 2.004,30.985 L9.674,26.829 C6.866,24.580 5.940,20.154 5.940,17.965 L5.940,12.956 C5.940,9.639 10.468,5.944 14.898,5.944 C19.329,5.944 23.741,9.639 23.741,12.956 ZM21.366,12.956 C21.366,11.211 18.329,8.317 14.898,8.317 C11.531,8.317 8.315,11.252 8.315,12.956 L8.315,17.965 C8.315,19.850 9.168,23.383 11.159,24.978 C11.780,25.475 12.110,26.250 12.040,27.041 C11.969,27.832 11.505,28.536 10.806,28.915 L3.136,33.070 C3.082,33.100 3.027,33.127 2.971,33.152 C2.783,33.238 2.545,33.382 2.375,33.506 L2.375,35.627 L27.314,35.627 L27.314,33.480 C27.156,33.372 26.940,33.248 26.765,33.173 C26.695,33.143 26.612,33.104 26.546,33.068 L19.070,28.931 C18.369,28.549 17.908,27.840 17.840,27.046 C17.774,26.251 18.112,25.476 18.739,24.982 C20.788,23.372 21.366,19.823 21.366,17.965 L21.366,12.956 Z"/>
</svg>