<svg 
 xmlns="http://www.w3.org/2000/svg"
 xmlns:xlink="http://www.w3.org/1999/xlink"
 width="33px" height="33px">
<path fill-rule="evenodd"  fill="rgb(255, 255, 255)"
 d="M31.656,12.023 C30.950,13.924 30.231,15.210 28.258,16.964 C26.856,18.210 23.476,19.785 21.212,21.051 C20.381,21.516 19.498,21.993 19.000,22.302 L19.000,27.462 C19.000,27.754 18.872,28.031 18.650,28.221 L14.945,31.907 C14.761,32.065 14.530,32.148 14.294,32.148 C14.190,32.148 14.086,32.131 13.985,32.099 C13.653,31.990 13.401,31.717 13.321,31.378 L12.104,26.231 L9.844,23.725 C8.760,22.522 8.083,21.771 7.676,21.269 L1.709,19.905 C1.365,19.827 1.088,19.571 0.980,19.235 C0.873,18.899 0.950,18.530 1.184,18.266 L4.850,14.293 C5.040,14.079 5.312,13.956 5.598,13.956 L11.161,13.956 C11.507,13.334 11.915,12.520 12.342,11.668 C13.447,9.463 14.700,6.807 15.959,5.337 C17.471,3.574 19.090,2.410 21.057,1.676 C26.440,-0.335 32.037,0.074 32.037,0.074 C32.536,0.111 32.932,0.510 32.962,1.009 C32.979,1.273 33.336,7.502 31.656,12.023 ZM30.996,2.038 C29.255,2.026 25.446,2.171 21.756,3.550 C20.098,4.169 18.777,5.122 17.478,6.638 C16.378,7.922 15.132,10.566 14.130,12.564 C13.539,13.744 13.028,14.763 12.588,15.480 C12.407,15.776 12.084,15.956 11.736,15.956 L6.048,15.956 L3.801,18.331 L8.382,19.379 C8.599,19.429 8.791,19.549 8.931,19.718 C9.144,19.962 11.922,23.043 13.761,25.081 C13.873,25.206 13.953,25.358 13.992,25.521 L14.890,29.321 L17.000,27.002 L17.000,21.776 C17.000,21.475 17.135,21.191 17.368,21.001 C17.772,20.670 18.695,20.167 20.236,19.306 C22.301,18.152 25.690,16.571 26.930,15.469 C28.607,13.978 29.165,12.985 29.781,11.327 C30.959,8.157 31.028,3.882 30.996,2.038 ZM22.998,14.011 C20.787,14.011 18.987,12.212 18.987,10.000 C18.987,7.788 20.787,5.989 22.998,5.989 C25.210,5.989 27.009,7.788 27.009,10.000 C27.009,12.212 25.210,14.011 22.998,14.011 ZM22.998,7.998 C21.895,7.998 20.996,8.896 20.996,10.000 C20.996,11.104 21.895,12.002 22.998,12.002 C24.102,12.002 25.001,11.104 25.001,10.000 C25.001,8.896 24.102,7.998 22.998,7.998 ZM4.138,23.832 C4.650,23.577 5.179,23.345 5.754,22.904 L6.972,24.458 C6.244,25.018 5.571,25.353 5.031,25.623 C3.743,26.264 3.100,26.626 3.000,30.000 C6.497,29.873 6.893,29.002 7.522,27.696 C7.767,27.188 8.045,26.611 8.490,26.004 L9.973,27.351 C9.606,27.961 9.485,28.266 9.267,28.718 C8.274,30.781 7.283,31.978 1.983,31.978 L1.000,32.000 L0.983,30.978 C0.983,25.955 1.993,24.902 4.138,23.832 Z"/>
</svg>